%TF.GenerationSoftware,KiCad,Pcbnew,(5.1.6)-1*%
%TF.CreationDate,2020-08-02T04:50:32+09:00*%
%TF.ProjectId,DummyMic,44756d6d-794d-4696-932e-6b696361645f,rev?*%
%TF.SameCoordinates,Original*%
%TF.FileFunction,Soldermask,Top*%
%TF.FilePolarity,Negative*%
%FSLAX46Y46*%
G04 Gerber Fmt 4.6, Leading zero omitted, Abs format (unit mm)*
G04 Created by KiCad (PCBNEW (5.1.6)-1) date 2020-08-02 04:50:32*
%MOMM*%
%LPD*%
G01*
G04 APERTURE LIST*
%ADD10R,1.100000X2.900000*%
%ADD11C,1.624000*%
G04 APERTURE END LIST*
%TO.C,R4*%
G36*
G01*
X160265500Y-74468000D02*
X160790500Y-74468000D01*
G75*
G02*
X161053000Y-74730500I0J-262500D01*
G01*
X161053000Y-75355500D01*
G75*
G02*
X160790500Y-75618000I-262500J0D01*
G01*
X160265500Y-75618000D01*
G75*
G02*
X160003000Y-75355500I0J262500D01*
G01*
X160003000Y-74730500D01*
G75*
G02*
X160265500Y-74468000I262500J0D01*
G01*
G37*
G36*
G01*
X160265500Y-72718000D02*
X160790500Y-72718000D01*
G75*
G02*
X161053000Y-72980500I0J-262500D01*
G01*
X161053000Y-73605500D01*
G75*
G02*
X160790500Y-73868000I-262500J0D01*
G01*
X160265500Y-73868000D01*
G75*
G02*
X160003000Y-73605500I0J262500D01*
G01*
X160003000Y-72980500D01*
G75*
G02*
X160265500Y-72718000I262500J0D01*
G01*
G37*
%TD*%
%TO.C,R3*%
G36*
G01*
X154894000Y-72762500D02*
X154894000Y-73287500D01*
G75*
G02*
X154631500Y-73550000I-262500J0D01*
G01*
X154006500Y-73550000D01*
G75*
G02*
X153744000Y-73287500I0J262500D01*
G01*
X153744000Y-72762500D01*
G75*
G02*
X154006500Y-72500000I262500J0D01*
G01*
X154631500Y-72500000D01*
G75*
G02*
X154894000Y-72762500I0J-262500D01*
G01*
G37*
G36*
G01*
X156644000Y-72762500D02*
X156644000Y-73287500D01*
G75*
G02*
X156381500Y-73550000I-262500J0D01*
G01*
X155756500Y-73550000D01*
G75*
G02*
X155494000Y-73287500I0J262500D01*
G01*
X155494000Y-72762500D01*
G75*
G02*
X155756500Y-72500000I262500J0D01*
G01*
X156381500Y-72500000D01*
G75*
G02*
X156644000Y-72762500I0J-262500D01*
G01*
G37*
%TD*%
%TO.C,R2*%
G36*
G01*
X153915500Y-76105000D02*
X154440500Y-76105000D01*
G75*
G02*
X154703000Y-76367500I0J-262500D01*
G01*
X154703000Y-76992500D01*
G75*
G02*
X154440500Y-77255000I-262500J0D01*
G01*
X153915500Y-77255000D01*
G75*
G02*
X153653000Y-76992500I0J262500D01*
G01*
X153653000Y-76367500D01*
G75*
G02*
X153915500Y-76105000I262500J0D01*
G01*
G37*
G36*
G01*
X153915500Y-74355000D02*
X154440500Y-74355000D01*
G75*
G02*
X154703000Y-74617500I0J-262500D01*
G01*
X154703000Y-75242500D01*
G75*
G02*
X154440500Y-75505000I-262500J0D01*
G01*
X153915500Y-75505000D01*
G75*
G02*
X153653000Y-75242500I0J262500D01*
G01*
X153653000Y-74617500D01*
G75*
G02*
X153915500Y-74355000I262500J0D01*
G01*
G37*
%TD*%
%TO.C,R1*%
G36*
G01*
X154440500Y-69931000D02*
X153915500Y-69931000D01*
G75*
G02*
X153653000Y-69668500I0J262500D01*
G01*
X153653000Y-69043500D01*
G75*
G02*
X153915500Y-68781000I262500J0D01*
G01*
X154440500Y-68781000D01*
G75*
G02*
X154703000Y-69043500I0J-262500D01*
G01*
X154703000Y-69668500D01*
G75*
G02*
X154440500Y-69931000I-262500J0D01*
G01*
G37*
G36*
G01*
X154440500Y-71681000D02*
X153915500Y-71681000D01*
G75*
G02*
X153653000Y-71418500I0J262500D01*
G01*
X153653000Y-70793500D01*
G75*
G02*
X153915500Y-70531000I262500J0D01*
G01*
X154440500Y-70531000D01*
G75*
G02*
X154703000Y-70793500I0J-262500D01*
G01*
X154703000Y-71418500D01*
G75*
G02*
X154440500Y-71681000I-262500J0D01*
G01*
G37*
%TD*%
D10*
%TO.C,J2*%
X163500000Y-69200000D03*
X169000000Y-69200000D03*
X172200000Y-69200000D03*
X162900000Y-76800000D03*
X165200000Y-76800000D03*
X172200000Y-76800000D03*
D11*
X165000000Y-73000000D03*
X172000000Y-73000000D03*
%TD*%
D10*
%TO.C,J1*%
X151295000Y-76800000D03*
X145795000Y-76800000D03*
X142595000Y-76800000D03*
X151895000Y-69200000D03*
X149595000Y-69200000D03*
X142595000Y-69200000D03*
D11*
X149795000Y-73000000D03*
X142795000Y-73000000D03*
%TD*%
%TO.C,C2*%
G36*
G01*
X156953000Y-70387738D02*
X156953000Y-71344262D01*
G75*
G02*
X156681262Y-71616000I-271738J0D01*
G01*
X155974738Y-71616000D01*
G75*
G02*
X155703000Y-71344262I0J271738D01*
G01*
X155703000Y-70387738D01*
G75*
G02*
X155974738Y-70116000I271738J0D01*
G01*
X156681262Y-70116000D01*
G75*
G02*
X156953000Y-70387738I0J-271738D01*
G01*
G37*
G36*
G01*
X159003000Y-70387738D02*
X159003000Y-71344262D01*
G75*
G02*
X158731262Y-71616000I-271738J0D01*
G01*
X158024738Y-71616000D01*
G75*
G02*
X157753000Y-71344262I0J271738D01*
G01*
X157753000Y-70387738D01*
G75*
G02*
X158024738Y-70116000I271738J0D01*
G01*
X158731262Y-70116000D01*
G75*
G02*
X159003000Y-70387738I0J-271738D01*
G01*
G37*
%TD*%
%TO.C,C1*%
G36*
G01*
X156953000Y-74705738D02*
X156953000Y-75662262D01*
G75*
G02*
X156681262Y-75934000I-271738J0D01*
G01*
X155974738Y-75934000D01*
G75*
G02*
X155703000Y-75662262I0J271738D01*
G01*
X155703000Y-74705738D01*
G75*
G02*
X155974738Y-74434000I271738J0D01*
G01*
X156681262Y-74434000D01*
G75*
G02*
X156953000Y-74705738I0J-271738D01*
G01*
G37*
G36*
G01*
X159003000Y-74705738D02*
X159003000Y-75662262D01*
G75*
G02*
X158731262Y-75934000I-271738J0D01*
G01*
X158024738Y-75934000D01*
G75*
G02*
X157753000Y-75662262I0J271738D01*
G01*
X157753000Y-74705738D01*
G75*
G02*
X158024738Y-74434000I271738J0D01*
G01*
X158731262Y-74434000D01*
G75*
G02*
X159003000Y-74705738I0J-271738D01*
G01*
G37*
%TD*%
M02*
