%TF.GenerationSoftware,KiCad,Pcbnew,(5.1.6)-1*%
%TF.CreationDate,2020-08-02T04:50:32+09:00*%
%TF.ProjectId,DummyMic,44756d6d-794d-4696-932e-6b696361645f,rev?*%
%TF.SameCoordinates,Original*%
%TF.FileFunction,Legend,Top*%
%TF.FilePolarity,Positive*%
%FSLAX46Y46*%
G04 Gerber Fmt 4.6, Leading zero omitted, Abs format (unit mm)*
G04 Created by KiCad (PCBNEW (5.1.6)-1) date 2020-08-02 04:50:32*
%MOMM*%
%LPD*%
G01*
G04 APERTURE LIST*
%ADD10C,0.150000*%
%ADD11C,0.120000*%
%ADD12R,1.100000X2.900000*%
%ADD13C,1.624000*%
G04 APERTURE END LIST*
D10*
X166057142Y-77752380D02*
X166057142Y-76752380D01*
X166390476Y-77466666D01*
X166723809Y-76752380D01*
X166723809Y-77752380D01*
X167200000Y-77752380D02*
X167200000Y-77085714D01*
X167200000Y-76752380D02*
X167152380Y-76800000D01*
X167200000Y-76847619D01*
X167247619Y-76800000D01*
X167200000Y-76752380D01*
X167200000Y-76847619D01*
X168104761Y-77704761D02*
X168009523Y-77752380D01*
X167819047Y-77752380D01*
X167723809Y-77704761D01*
X167676190Y-77657142D01*
X167628571Y-77561904D01*
X167628571Y-77276190D01*
X167676190Y-77180952D01*
X167723809Y-77133333D01*
X167819047Y-77085714D01*
X168009523Y-77085714D01*
X168104761Y-77133333D01*
X169485714Y-76752380D02*
X169676190Y-76752380D01*
X169771428Y-76800000D01*
X169866666Y-76895238D01*
X169914285Y-77085714D01*
X169914285Y-77419047D01*
X169866666Y-77609523D01*
X169771428Y-77704761D01*
X169676190Y-77752380D01*
X169485714Y-77752380D01*
X169390476Y-77704761D01*
X169295238Y-77609523D01*
X169247619Y-77419047D01*
X169247619Y-77085714D01*
X169295238Y-76895238D01*
X169390476Y-76800000D01*
X169485714Y-76752380D01*
X170771428Y-77085714D02*
X170771428Y-77752380D01*
X170342857Y-77085714D02*
X170342857Y-77609523D01*
X170390476Y-77704761D01*
X170485714Y-77752380D01*
X170628571Y-77752380D01*
X170723809Y-77704761D01*
X170771428Y-77657142D01*
X171104761Y-77085714D02*
X171485714Y-77085714D01*
X171247619Y-76752380D02*
X171247619Y-77609523D01*
X171295238Y-77704761D01*
X171390476Y-77752380D01*
X171485714Y-77752380D01*
X143933333Y-68866666D02*
X144409523Y-68866666D01*
X143838095Y-69152380D02*
X144171428Y-68152380D01*
X144504761Y-69152380D01*
X145266666Y-68485714D02*
X145266666Y-69152380D01*
X144838095Y-68485714D02*
X144838095Y-69009523D01*
X144885714Y-69104761D01*
X144980952Y-69152380D01*
X145123809Y-69152380D01*
X145219047Y-69104761D01*
X145266666Y-69057142D01*
X145647619Y-69152380D02*
X146171428Y-68485714D01*
X145647619Y-68485714D02*
X146171428Y-69152380D01*
X147314285Y-69152380D02*
X147314285Y-68152380D01*
X147790476Y-68485714D02*
X147790476Y-69152380D01*
X147790476Y-68580952D02*
X147838095Y-68533333D01*
X147933333Y-68485714D01*
X148076190Y-68485714D01*
X148171428Y-68533333D01*
X148219047Y-68628571D01*
X148219047Y-69152380D01*
X145004761Y-79398761D02*
X145147619Y-79446380D01*
X145385714Y-79446380D01*
X145480952Y-79398761D01*
X145528571Y-79351142D01*
X145576190Y-79255904D01*
X145576190Y-79160666D01*
X145528571Y-79065428D01*
X145480952Y-79017809D01*
X145385714Y-78970190D01*
X145195238Y-78922571D01*
X145100000Y-78874952D01*
X145052380Y-78827333D01*
X145004761Y-78732095D01*
X145004761Y-78636857D01*
X145052380Y-78541619D01*
X145100000Y-78494000D01*
X145195238Y-78446380D01*
X145433333Y-78446380D01*
X145576190Y-78494000D01*
X146004761Y-79446380D02*
X146004761Y-78779714D01*
X146004761Y-78874952D02*
X146052380Y-78827333D01*
X146147619Y-78779714D01*
X146290476Y-78779714D01*
X146385714Y-78827333D01*
X146433333Y-78922571D01*
X146433333Y-79446380D01*
X146433333Y-78922571D02*
X146480952Y-78827333D01*
X146576190Y-78779714D01*
X146719047Y-78779714D01*
X146814285Y-78827333D01*
X146861904Y-78922571D01*
X146861904Y-79446380D01*
X147766666Y-79446380D02*
X147766666Y-78922571D01*
X147719047Y-78827333D01*
X147623809Y-78779714D01*
X147433333Y-78779714D01*
X147338095Y-78827333D01*
X147766666Y-79398761D02*
X147671428Y-79446380D01*
X147433333Y-79446380D01*
X147338095Y-79398761D01*
X147290476Y-79303523D01*
X147290476Y-79208285D01*
X147338095Y-79113047D01*
X147433333Y-79065428D01*
X147671428Y-79065428D01*
X147766666Y-79017809D01*
X148242857Y-79446380D02*
X148242857Y-78779714D01*
X148242857Y-78970190D02*
X148290476Y-78874952D01*
X148338095Y-78827333D01*
X148433333Y-78779714D01*
X148528571Y-78779714D01*
X148719047Y-78779714D02*
X149100000Y-78779714D01*
X148861904Y-78446380D02*
X148861904Y-79303523D01*
X148909523Y-79398761D01*
X149004761Y-79446380D01*
X149100000Y-79446380D01*
X149433333Y-78779714D02*
X149433333Y-79779714D01*
X149433333Y-78827333D02*
X149528571Y-78779714D01*
X149719047Y-78779714D01*
X149814285Y-78827333D01*
X149861904Y-78874952D01*
X149909523Y-78970190D01*
X149909523Y-79255904D01*
X149861904Y-79351142D01*
X149814285Y-79398761D01*
X149719047Y-79446380D01*
X149528571Y-79446380D01*
X149433333Y-79398761D01*
X150338095Y-79446380D02*
X150338095Y-78446380D01*
X150766666Y-79446380D02*
X150766666Y-78922571D01*
X150719047Y-78827333D01*
X150623809Y-78779714D01*
X150480952Y-78779714D01*
X150385714Y-78827333D01*
X150338095Y-78874952D01*
X151385714Y-79446380D02*
X151290476Y-79398761D01*
X151242857Y-79351142D01*
X151195238Y-79255904D01*
X151195238Y-78970190D01*
X151242857Y-78874952D01*
X151290476Y-78827333D01*
X151385714Y-78779714D01*
X151528571Y-78779714D01*
X151623809Y-78827333D01*
X151671428Y-78874952D01*
X151719047Y-78970190D01*
X151719047Y-79255904D01*
X151671428Y-79351142D01*
X151623809Y-79398761D01*
X151528571Y-79446380D01*
X151385714Y-79446380D01*
X152147619Y-78779714D02*
X152147619Y-79446380D01*
X152147619Y-78874952D02*
X152195238Y-78827333D01*
X152290476Y-78779714D01*
X152433333Y-78779714D01*
X152528571Y-78827333D01*
X152576190Y-78922571D01*
X152576190Y-79446380D01*
X153433333Y-79398761D02*
X153338095Y-79446380D01*
X153147619Y-79446380D01*
X153052380Y-79398761D01*
X153004761Y-79303523D01*
X153004761Y-78922571D01*
X153052380Y-78827333D01*
X153147619Y-78779714D01*
X153338095Y-78779714D01*
X153433333Y-78827333D01*
X153480952Y-78922571D01*
X153480952Y-79017809D01*
X153004761Y-79113047D01*
X154671428Y-79446380D02*
X154671428Y-78446380D01*
X154909523Y-78446380D01*
X155052380Y-78494000D01*
X155147619Y-78589238D01*
X155195238Y-78684476D01*
X155242857Y-78874952D01*
X155242857Y-79017809D01*
X155195238Y-79208285D01*
X155147619Y-79303523D01*
X155052380Y-79398761D01*
X154909523Y-79446380D01*
X154671428Y-79446380D01*
X156100000Y-78779714D02*
X156100000Y-79446380D01*
X155671428Y-78779714D02*
X155671428Y-79303523D01*
X155719047Y-79398761D01*
X155814285Y-79446380D01*
X155957142Y-79446380D01*
X156052380Y-79398761D01*
X156100000Y-79351142D01*
X156576190Y-79446380D02*
X156576190Y-78779714D01*
X156576190Y-78874952D02*
X156623809Y-78827333D01*
X156719047Y-78779714D01*
X156861904Y-78779714D01*
X156957142Y-78827333D01*
X157004761Y-78922571D01*
X157004761Y-79446380D01*
X157004761Y-78922571D02*
X157052380Y-78827333D01*
X157147619Y-78779714D01*
X157290476Y-78779714D01*
X157385714Y-78827333D01*
X157433333Y-78922571D01*
X157433333Y-79446380D01*
X157909523Y-79446380D02*
X157909523Y-78779714D01*
X157909523Y-78874952D02*
X157957142Y-78827333D01*
X158052380Y-78779714D01*
X158195238Y-78779714D01*
X158290476Y-78827333D01*
X158338095Y-78922571D01*
X158338095Y-79446380D01*
X158338095Y-78922571D02*
X158385714Y-78827333D01*
X158480952Y-78779714D01*
X158623809Y-78779714D01*
X158719047Y-78827333D01*
X158766666Y-78922571D01*
X158766666Y-79446380D01*
X159147619Y-78779714D02*
X159385714Y-79446380D01*
X159623809Y-78779714D02*
X159385714Y-79446380D01*
X159290476Y-79684476D01*
X159242857Y-79732095D01*
X159147619Y-79779714D01*
X160766666Y-79446380D02*
X160766666Y-78446380D01*
X161100000Y-79160666D01*
X161433333Y-78446380D01*
X161433333Y-79446380D01*
X161909523Y-79446380D02*
X161909523Y-78779714D01*
X161909523Y-78446380D02*
X161861904Y-78494000D01*
X161909523Y-78541619D01*
X161957142Y-78494000D01*
X161909523Y-78446380D01*
X161909523Y-78541619D01*
X162814285Y-79398761D02*
X162719047Y-79446380D01*
X162528571Y-79446380D01*
X162433333Y-79398761D01*
X162385714Y-79351142D01*
X162338095Y-79255904D01*
X162338095Y-78970190D01*
X162385714Y-78874952D01*
X162433333Y-78827333D01*
X162528571Y-78779714D01*
X162719047Y-78779714D01*
X162814285Y-78827333D01*
X163957142Y-79160666D02*
X164433333Y-79160666D01*
X163861904Y-79446380D02*
X164195238Y-78446380D01*
X164528571Y-79446380D01*
X165290476Y-79446380D02*
X165290476Y-78446380D01*
X165290476Y-79398761D02*
X165195238Y-79446380D01*
X165004761Y-79446380D01*
X164909523Y-79398761D01*
X164861904Y-79351142D01*
X164814285Y-79255904D01*
X164814285Y-78970190D01*
X164861904Y-78874952D01*
X164909523Y-78827333D01*
X165004761Y-78779714D01*
X165195238Y-78779714D01*
X165290476Y-78827333D01*
X166195238Y-79446380D02*
X166195238Y-78922571D01*
X166147619Y-78827333D01*
X166052380Y-78779714D01*
X165861904Y-78779714D01*
X165766666Y-78827333D01*
X166195238Y-79398761D02*
X166100000Y-79446380D01*
X165861904Y-79446380D01*
X165766666Y-79398761D01*
X165719047Y-79303523D01*
X165719047Y-79208285D01*
X165766666Y-79113047D01*
X165861904Y-79065428D01*
X166100000Y-79065428D01*
X166195238Y-79017809D01*
X166671428Y-78779714D02*
X166671428Y-79779714D01*
X166671428Y-78827333D02*
X166766666Y-78779714D01*
X166957142Y-78779714D01*
X167052380Y-78827333D01*
X167100000Y-78874952D01*
X167147619Y-78970190D01*
X167147619Y-79255904D01*
X167100000Y-79351142D01*
X167052380Y-79398761D01*
X166957142Y-79446380D01*
X166766666Y-79446380D01*
X166671428Y-79398761D01*
X167433333Y-78779714D02*
X167814285Y-78779714D01*
X167576190Y-78446380D02*
X167576190Y-79303523D01*
X167623809Y-79398761D01*
X167719047Y-79446380D01*
X167814285Y-79446380D01*
X168528571Y-79398761D02*
X168433333Y-79446380D01*
X168242857Y-79446380D01*
X168147619Y-79398761D01*
X168099999Y-79303523D01*
X168099999Y-78922571D01*
X168147619Y-78827333D01*
X168242857Y-78779714D01*
X168433333Y-78779714D01*
X168528571Y-78827333D01*
X168576190Y-78922571D01*
X168576190Y-79017809D01*
X168099999Y-79113047D01*
X169004761Y-79446380D02*
X169004761Y-78779714D01*
X169004761Y-78970190D02*
X169052380Y-78874952D01*
X169099999Y-78827333D01*
X169195238Y-78779714D01*
X169290476Y-78779714D01*
D11*
%TO.C,R4*%
X161038000Y-73996733D02*
X161038000Y-74339267D01*
X160018000Y-73996733D02*
X160018000Y-74339267D01*
%TO.C,R3*%
X155365267Y-73535000D02*
X155022733Y-73535000D01*
X155365267Y-72515000D02*
X155022733Y-72515000D01*
%TO.C,R2*%
X154688000Y-75633733D02*
X154688000Y-75976267D01*
X153668000Y-75633733D02*
X153668000Y-75976267D01*
%TO.C,R1*%
X153668000Y-70402267D02*
X153668000Y-70059733D01*
X154688000Y-70402267D02*
X154688000Y-70059733D01*
D10*
%TO.C,J2*%
X176400000Y-70400000D02*
X174400000Y-70400000D01*
X176400000Y-75600000D02*
X176400000Y-70400000D01*
X174400000Y-75600000D02*
X176400000Y-75600000D01*
X162400000Y-69800000D02*
X174400000Y-69800000D01*
X162400000Y-76200000D02*
X162400000Y-69800000D01*
X174400000Y-76200000D02*
X162400000Y-76200000D01*
X174400000Y-73000000D02*
X174400000Y-69800000D01*
X174400000Y-73000000D02*
X174400000Y-76200000D01*
%TO.C,J1*%
X138395000Y-75600000D02*
X140395000Y-75600000D01*
X138395000Y-70400000D02*
X138395000Y-75600000D01*
X140395000Y-70400000D02*
X138395000Y-70400000D01*
X152395000Y-76200000D02*
X140395000Y-76200000D01*
X152395000Y-69800000D02*
X152395000Y-76200000D01*
X140395000Y-69800000D02*
X152395000Y-69800000D01*
X140395000Y-73000000D02*
X140395000Y-76200000D01*
X140395000Y-73000000D02*
X140395000Y-69800000D01*
D11*
%TO.C,C2*%
X157614252Y-71576000D02*
X157091748Y-71576000D01*
X157614252Y-70156000D02*
X157091748Y-70156000D01*
%TO.C,C1*%
X157614252Y-75894000D02*
X157091748Y-75894000D01*
X157614252Y-74474000D02*
X157091748Y-74474000D01*
%TO.C,R4*%
D10*
X160361333Y-72080380D02*
X160028000Y-71604190D01*
X159789904Y-72080380D02*
X159789904Y-71080380D01*
X160170857Y-71080380D01*
X160266095Y-71128000D01*
X160313714Y-71175619D01*
X160361333Y-71270857D01*
X160361333Y-71413714D01*
X160313714Y-71508952D01*
X160266095Y-71556571D01*
X160170857Y-71604190D01*
X159789904Y-71604190D01*
X161218476Y-71413714D02*
X161218476Y-72080380D01*
X160980380Y-71032761D02*
X160742285Y-71747047D01*
X161361333Y-71747047D01*
%TO.C,R3*%
X157821333Y-73452380D02*
X157488000Y-72976190D01*
X157249904Y-73452380D02*
X157249904Y-72452380D01*
X157630857Y-72452380D01*
X157726095Y-72500000D01*
X157773714Y-72547619D01*
X157821333Y-72642857D01*
X157821333Y-72785714D01*
X157773714Y-72880952D01*
X157726095Y-72928571D01*
X157630857Y-72976190D01*
X157249904Y-72976190D01*
X158154666Y-72452380D02*
X158773714Y-72452380D01*
X158440380Y-72833333D01*
X158583238Y-72833333D01*
X158678476Y-72880952D01*
X158726095Y-72928571D01*
X158773714Y-73023809D01*
X158773714Y-73261904D01*
X158726095Y-73357142D01*
X158678476Y-73404761D01*
X158583238Y-73452380D01*
X158297523Y-73452380D01*
X158202285Y-73404761D01*
X158154666Y-73357142D01*
%TO.C,R2*%
X155833333Y-77452380D02*
X155500000Y-76976190D01*
X155261904Y-77452380D02*
X155261904Y-76452380D01*
X155642857Y-76452380D01*
X155738095Y-76500000D01*
X155785714Y-76547619D01*
X155833333Y-76642857D01*
X155833333Y-76785714D01*
X155785714Y-76880952D01*
X155738095Y-76928571D01*
X155642857Y-76976190D01*
X155261904Y-76976190D01*
X156214285Y-76547619D02*
X156261904Y-76500000D01*
X156357142Y-76452380D01*
X156595238Y-76452380D01*
X156690476Y-76500000D01*
X156738095Y-76547619D01*
X156785714Y-76642857D01*
X156785714Y-76738095D01*
X156738095Y-76880952D01*
X156166666Y-77452380D01*
X156785714Y-77452380D01*
%TO.C,R1*%
X155833333Y-69452380D02*
X155500000Y-68976190D01*
X155261904Y-69452380D02*
X155261904Y-68452380D01*
X155642857Y-68452380D01*
X155738095Y-68500000D01*
X155785714Y-68547619D01*
X155833333Y-68642857D01*
X155833333Y-68785714D01*
X155785714Y-68880952D01*
X155738095Y-68928571D01*
X155642857Y-68976190D01*
X155261904Y-68976190D01*
X156785714Y-69452380D02*
X156214285Y-69452380D01*
X156500000Y-69452380D02*
X156500000Y-68452380D01*
X156404761Y-68595238D01*
X156309523Y-68690476D01*
X156214285Y-68738095D01*
%TO.C,C2*%
X158233333Y-69357142D02*
X158185714Y-69404761D01*
X158042857Y-69452380D01*
X157947619Y-69452380D01*
X157804761Y-69404761D01*
X157709523Y-69309523D01*
X157661904Y-69214285D01*
X157614285Y-69023809D01*
X157614285Y-68880952D01*
X157661904Y-68690476D01*
X157709523Y-68595238D01*
X157804761Y-68500000D01*
X157947619Y-68452380D01*
X158042857Y-68452380D01*
X158185714Y-68500000D01*
X158233333Y-68547619D01*
X158614285Y-68547619D02*
X158661904Y-68500000D01*
X158757142Y-68452380D01*
X158995238Y-68452380D01*
X159090476Y-68500000D01*
X159138095Y-68547619D01*
X159185714Y-68642857D01*
X159185714Y-68738095D01*
X159138095Y-68880952D01*
X158566666Y-69452380D01*
X159185714Y-69452380D01*
%TO.C,C1*%
X158329333Y-77357142D02*
X158281714Y-77404761D01*
X158138857Y-77452380D01*
X158043619Y-77452380D01*
X157900761Y-77404761D01*
X157805523Y-77309523D01*
X157757904Y-77214285D01*
X157710285Y-77023809D01*
X157710285Y-76880952D01*
X157757904Y-76690476D01*
X157805523Y-76595238D01*
X157900761Y-76500000D01*
X158043619Y-76452380D01*
X158138857Y-76452380D01*
X158281714Y-76500000D01*
X158329333Y-76547619D01*
X159281714Y-77452380D02*
X158710285Y-77452380D01*
X158996000Y-77452380D02*
X158996000Y-76452380D01*
X158900761Y-76595238D01*
X158805523Y-76690476D01*
X158710285Y-76738095D01*
%TD*%
%LPC*%
%TO.C,R4*%
G36*
G01*
X160265500Y-74468000D02*
X160790500Y-74468000D01*
G75*
G02*
X161053000Y-74730500I0J-262500D01*
G01*
X161053000Y-75355500D01*
G75*
G02*
X160790500Y-75618000I-262500J0D01*
G01*
X160265500Y-75618000D01*
G75*
G02*
X160003000Y-75355500I0J262500D01*
G01*
X160003000Y-74730500D01*
G75*
G02*
X160265500Y-74468000I262500J0D01*
G01*
G37*
G36*
G01*
X160265500Y-72718000D02*
X160790500Y-72718000D01*
G75*
G02*
X161053000Y-72980500I0J-262500D01*
G01*
X161053000Y-73605500D01*
G75*
G02*
X160790500Y-73868000I-262500J0D01*
G01*
X160265500Y-73868000D01*
G75*
G02*
X160003000Y-73605500I0J262500D01*
G01*
X160003000Y-72980500D01*
G75*
G02*
X160265500Y-72718000I262500J0D01*
G01*
G37*
%TD*%
%TO.C,R3*%
G36*
G01*
X154894000Y-72762500D02*
X154894000Y-73287500D01*
G75*
G02*
X154631500Y-73550000I-262500J0D01*
G01*
X154006500Y-73550000D01*
G75*
G02*
X153744000Y-73287500I0J262500D01*
G01*
X153744000Y-72762500D01*
G75*
G02*
X154006500Y-72500000I262500J0D01*
G01*
X154631500Y-72500000D01*
G75*
G02*
X154894000Y-72762500I0J-262500D01*
G01*
G37*
G36*
G01*
X156644000Y-72762500D02*
X156644000Y-73287500D01*
G75*
G02*
X156381500Y-73550000I-262500J0D01*
G01*
X155756500Y-73550000D01*
G75*
G02*
X155494000Y-73287500I0J262500D01*
G01*
X155494000Y-72762500D01*
G75*
G02*
X155756500Y-72500000I262500J0D01*
G01*
X156381500Y-72500000D01*
G75*
G02*
X156644000Y-72762500I0J-262500D01*
G01*
G37*
%TD*%
%TO.C,R2*%
G36*
G01*
X153915500Y-76105000D02*
X154440500Y-76105000D01*
G75*
G02*
X154703000Y-76367500I0J-262500D01*
G01*
X154703000Y-76992500D01*
G75*
G02*
X154440500Y-77255000I-262500J0D01*
G01*
X153915500Y-77255000D01*
G75*
G02*
X153653000Y-76992500I0J262500D01*
G01*
X153653000Y-76367500D01*
G75*
G02*
X153915500Y-76105000I262500J0D01*
G01*
G37*
G36*
G01*
X153915500Y-74355000D02*
X154440500Y-74355000D01*
G75*
G02*
X154703000Y-74617500I0J-262500D01*
G01*
X154703000Y-75242500D01*
G75*
G02*
X154440500Y-75505000I-262500J0D01*
G01*
X153915500Y-75505000D01*
G75*
G02*
X153653000Y-75242500I0J262500D01*
G01*
X153653000Y-74617500D01*
G75*
G02*
X153915500Y-74355000I262500J0D01*
G01*
G37*
%TD*%
%TO.C,R1*%
G36*
G01*
X154440500Y-69931000D02*
X153915500Y-69931000D01*
G75*
G02*
X153653000Y-69668500I0J262500D01*
G01*
X153653000Y-69043500D01*
G75*
G02*
X153915500Y-68781000I262500J0D01*
G01*
X154440500Y-68781000D01*
G75*
G02*
X154703000Y-69043500I0J-262500D01*
G01*
X154703000Y-69668500D01*
G75*
G02*
X154440500Y-69931000I-262500J0D01*
G01*
G37*
G36*
G01*
X154440500Y-71681000D02*
X153915500Y-71681000D01*
G75*
G02*
X153653000Y-71418500I0J262500D01*
G01*
X153653000Y-70793500D01*
G75*
G02*
X153915500Y-70531000I262500J0D01*
G01*
X154440500Y-70531000D01*
G75*
G02*
X154703000Y-70793500I0J-262500D01*
G01*
X154703000Y-71418500D01*
G75*
G02*
X154440500Y-71681000I-262500J0D01*
G01*
G37*
%TD*%
D12*
%TO.C,J2*%
X163500000Y-69200000D03*
X169000000Y-69200000D03*
X172200000Y-69200000D03*
X162900000Y-76800000D03*
X165200000Y-76800000D03*
X172200000Y-76800000D03*
D13*
X165000000Y-73000000D03*
X172000000Y-73000000D03*
%TD*%
D12*
%TO.C,J1*%
X151295000Y-76800000D03*
X145795000Y-76800000D03*
X142595000Y-76800000D03*
X151895000Y-69200000D03*
X149595000Y-69200000D03*
X142595000Y-69200000D03*
D13*
X149795000Y-73000000D03*
X142795000Y-73000000D03*
%TD*%
%TO.C,C2*%
G36*
G01*
X156953000Y-70387738D02*
X156953000Y-71344262D01*
G75*
G02*
X156681262Y-71616000I-271738J0D01*
G01*
X155974738Y-71616000D01*
G75*
G02*
X155703000Y-71344262I0J271738D01*
G01*
X155703000Y-70387738D01*
G75*
G02*
X155974738Y-70116000I271738J0D01*
G01*
X156681262Y-70116000D01*
G75*
G02*
X156953000Y-70387738I0J-271738D01*
G01*
G37*
G36*
G01*
X159003000Y-70387738D02*
X159003000Y-71344262D01*
G75*
G02*
X158731262Y-71616000I-271738J0D01*
G01*
X158024738Y-71616000D01*
G75*
G02*
X157753000Y-71344262I0J271738D01*
G01*
X157753000Y-70387738D01*
G75*
G02*
X158024738Y-70116000I271738J0D01*
G01*
X158731262Y-70116000D01*
G75*
G02*
X159003000Y-70387738I0J-271738D01*
G01*
G37*
%TD*%
%TO.C,C1*%
G36*
G01*
X156953000Y-74705738D02*
X156953000Y-75662262D01*
G75*
G02*
X156681262Y-75934000I-271738J0D01*
G01*
X155974738Y-75934000D01*
G75*
G02*
X155703000Y-75662262I0J271738D01*
G01*
X155703000Y-74705738D01*
G75*
G02*
X155974738Y-74434000I271738J0D01*
G01*
X156681262Y-74434000D01*
G75*
G02*
X156953000Y-74705738I0J-271738D01*
G01*
G37*
G36*
G01*
X159003000Y-74705738D02*
X159003000Y-75662262D01*
G75*
G02*
X158731262Y-75934000I-271738J0D01*
G01*
X158024738Y-75934000D01*
G75*
G02*
X157753000Y-75662262I0J271738D01*
G01*
X157753000Y-74705738D01*
G75*
G02*
X158024738Y-74434000I271738J0D01*
G01*
X158731262Y-74434000D01*
G75*
G02*
X159003000Y-74705738I0J-271738D01*
G01*
G37*
%TD*%
M02*
